# xmcd
#
# Track frame offsets:
#	150
#	17732
#	37342
#	62086
#	78996
#	97779
#	116319
#	128600
#	144349
#	156060
#	177338
#
# Disc length: 2869 seconds
#
# Revision: 1
# Processed by: cddbd v1.4PL0 Copyright (c) Steve Scherf et al.
# Submitted via: audiograbber 1.82.02
#
DISCID=830b330b
DTITLE=Boogie Hookers - Some Like It Hot
DYEAR=2003
DGENRE=Blues Rock
TTITLE0=Rollin' And Tumblin'
TTITLE1=Slave Shuffle
TTITLE2=Trouble In Mind
TTITLE3=Pan Am Highway Blues
TTITLE4=You Don't Love Me
TTITLE5=Patio Laterns
TTITLE6=You're Humbuggin' Me
TTITLE7=Saturday Night
TTITLE8=Out Of The Western Plain
TTITLE9=Mary's Way
TTITLE10=Lenny (Live)
EXTD=http://www.boogiehookers.de
EXTT0=
EXTT1=
EXTT2=
EXTT3=
EXTT4=
EXTT5=
EXTT6=
EXTT7=
EXTT8=
EXTT9=
EXTT10=
PLAYORDER=
